<svg width="15" height="15" viewBox="0 0 15 15" fill="none" xmlns="http://www.w3.org/2000/svg">
<path fill-rule="evenodd" clip-rule="evenodd" d="M7.33337 14.3334C3.46738 14.3334 0.333374 11.1994 0.333374 7.33337C0.333374 3.46738 3.46738 0.333374 7.33337 0.333374C11.1994 0.333374 14.3334 3.46738 14.3334 7.33337C14.3334 11.1994 11.1994 14.3334 7.33337 14.3334ZM7.33337 6.86197L9.09767 5.09767C9.22785 4.9675 9.4389 4.9675 9.56908 5.09767C9.69925 5.22785 9.69925 5.4389 9.56908 5.56908L7.80478 7.33337L9.56908 9.09767C9.69925 9.22785 9.69925 9.4389 9.56908 9.56908C9.4389 9.69925 9.22785 9.69925 9.09767 9.56908L7.33337 7.80478L5.56908 9.56908C5.4389 9.69925 5.22785 9.69925 5.09767 9.56908C4.9675 9.4389 4.9675 9.22785 5.09767 9.09767L6.86197 7.33337L5.09767 5.56908C4.9675 5.4389 4.9675 5.22785 5.09767 5.09767C5.22785 4.9675 5.4389 4.9675 5.56908 5.09767L7.33337 6.86197ZM13.6667 7.33337C13.6667 10.8312 10.8312 13.6667 7.33337 13.6667C3.83557 13.6667 1.00004 10.8312 1.00004 7.33337C1.00004 3.83557 3.83557 1.00004 7.33337 1.00004C10.8312 1.00004 13.6667 3.83557 13.6667 7.33337Z" fill="#666666"/>
</svg>
