<svg width="32" height="32" viewBox="0 0 32 32" fill="none" xmlns="http://www.w3.org/2000/svg">
<path d="M22.6666 22.6666H7.9999C6.6951 22.6665 5.4356 22.1882 4.45973 21.322C3.48386 20.4559 2.85933 19.2621 2.7043 17.9666C2.54927 16.671 2.87451 15.3636 3.61847 14.2916C4.36243 13.2197 5.4735 12.4577 6.74143 12.1497C7.00001 10.122 7.91735 8.23534 9.35245 6.77969C10.7876 5.32404 12.661 4.37996 14.6848 4.09257C16.7086 3.80517 18.7708 4.19037 20.5544 5.18894C22.338 6.18752 23.7444 7.74422 24.5572 9.61977C26.0938 10.0728 27.4156 11.0646 28.2801 12.4132C29.1447 13.7618 29.4942 15.3769 29.2644 16.9623C29.0347 18.5477 28.2411 19.9972 27.0293 21.0449C25.8174 22.0926 24.2685 22.6684 22.6666 22.6666Z" fill="#D9E2EC"/>
<path d="M19.3333 18C19.1582 18.0002 18.9847 17.9658 18.823 17.8987C18.6612 17.8317 18.5143 17.7333 18.3906 17.6093L15.9999 15.2187L13.6093 17.6094C13.3587 17.8568 13.0204 17.995 12.6683 17.9939C12.3162 17.9928 11.9788 17.8524 11.7298 17.6034C11.4808 17.3544 11.3405 17.017 11.3394 16.6649C11.3383 16.3128 11.4765 15.9745 11.7239 15.724L15.0573 12.3906C15.1811 12.2668 15.328 12.1686 15.4898 12.1015C15.6515 12.0345 15.8249 12 16 12C16.1751 12 16.3484 12.0345 16.5102 12.1015C16.672 12.1686 16.8189 12.2668 16.9427 12.3906L20.276 15.724C20.4624 15.9104 20.5894 16.148 20.6408 16.4066C20.6922 16.6652 20.6658 16.9333 20.5649 17.1769C20.464 17.4205 20.2931 17.6287 20.0739 17.7752C19.8547 17.9217 19.597 17.9999 19.3333 18Z" fill="#627D98"/>
<path d="M16.0001 28C15.825 28 15.6516 27.9656 15.4898 27.8986C15.328 27.8316 15.181 27.7334 15.0572 27.6096C14.9334 27.4858 14.8351 27.3388 14.7681 27.177C14.7012 27.0152 14.6667 26.8418 14.6667 26.6667V13.3333C14.6667 12.9797 14.8072 12.6406 15.0573 12.3905C15.3073 12.1405 15.6465 12 16.0001 12C16.3537 12 16.6928 12.1405 16.9429 12.3905C17.1929 12.6406 17.3334 12.9797 17.3334 13.3333V26.6667C17.3335 26.8418 17.299 27.0152 17.232 27.177C17.165 27.3388 17.0668 27.4858 16.943 27.6096C16.8192 27.7334 16.6722 27.8316 16.5104 27.8986C16.3486 27.9656 16.1752 28 16.0001 28Z" fill="#627D98"/>
</svg>
